<svg width="164" height="61" viewBox="0 0 164 61" fill="none" xmlns="http://www.w3.org/2000/svg">
<g clip-path="url(#clip0_8_7)">
<path d="M36.2096 4.57597C36.2096 2.01577 38.2438 0 41.2723 0C44.3008 0 46.285 2.01577 46.285 4.57597C46.285 7.13618 44.2509 9.10245 41.2723 9.10245C38.2937 9.10245 36.2096 7.08218 36.2096 4.57597ZM37.0042 11.9506H45.4905V39.393H37.0042V11.9506Z" fill="white"/>
<path d="M62.1769 11.5591C66.2452 11.5591 69.2238 13.3769 70.7131 15.8382V11.9506H79.1993V39.3434C79.1993 46.6731 74.9312 52.9184 65.3507 52.9184C57.1142 52.9184 51.7518 48.7834 51.0072 42.2456H59.3935C59.9384 44.3109 62.0225 45.6382 64.9511 45.6382C68.1749 45.6382 70.7085 43.9644 70.7085 39.3434V35.4604C69.1693 37.8721 66.2407 39.7889 62.1723 39.7889C55.3751 39.7889 49.9628 34.2815 49.9628 25.6245C49.9628 16.9675 55.3706 11.5591 62.1723 11.5591H62.1769ZM64.656 18.8843C61.4776 18.8843 58.6035 21.2465 58.6035 25.62C58.6035 29.9935 61.4822 32.4592 64.656 32.4592C67.8298 32.4592 70.7131 30.0475 70.7131 25.6695C70.7131 21.2915 67.8843 18.8798 64.656 18.8798V18.8843Z" fill="white"/>
<path d="M97.6793 39.7889C89.5381 39.7889 83.6854 34.3805 83.6854 25.674C83.6854 16.9675 89.4428 11.5591 97.6793 11.5591C105.916 11.5591 111.478 16.8685 111.478 25.2331C111.478 26.0205 111.428 26.8574 111.328 27.6898H92.1217C92.4214 31.2804 94.6553 32.9497 97.3842 32.9497C99.7679 32.9497 101.107 31.7708 101.802 30.295H110.833C109.494 35.6539 104.581 39.7844 97.6793 39.7844V39.7889ZM92.1716 23.0193H102.792C102.792 20.0182 100.408 18.2994 97.5794 18.2994C94.7507 18.2994 92.6665 19.9732 92.1716 23.0193Z" fill="white"/>
<path d="M124.134 39.3975H115.648V11.9507H124.134V16.5221C126.068 13.62 129.097 11.6537 132.82 11.6537V20.5582H130.486C126.468 20.5582 124.134 21.935 124.134 26.655V39.393V39.3975Z" fill="white"/>
<path d="M149.507 39.7889C141.365 39.7889 135.213 34.3805 135.213 25.674C135.213 16.9675 141.515 11.5591 149.607 11.5591C157.698 11.5591 164 16.9675 164 25.674C164 34.3805 157.648 39.7889 149.507 39.7889ZM149.507 32.5087C152.535 32.5087 155.364 30.295 155.364 25.674C155.364 21.0531 152.585 18.8393 149.607 18.8393C146.628 18.8393 143.849 21.0036 143.849 25.674C143.849 30.3445 146.428 32.5087 149.507 32.5087Z" fill="white"/>
<path d="M21.807 32.9047V4.86847H9.67012C8.29433 4.86847 7.1819 5.97084 7.1819 7.33419C7.1819 8.69753 8.29433 9.7999 9.67012 9.7999H14.8327C16.2085 9.7999 17.3209 10.9023 17.3209 12.2656C17.3209 13.629 16.2085 14.7313 14.8327 14.7313H9.17974C7.80396 14.7313 6.69152 15.8337 6.69152 17.1971C6.69152 18.5604 7.80396 19.6628 9.17974 19.6628H13.9246C15.3004 19.6628 16.4128 20.7651 16.4128 22.1285C16.4128 23.4918 15.3004 24.5942 13.9246 24.5942H6.58709C5.21131 24.5942 4.09888 25.6966 4.09888 27.0599C4.09888 28.4233 5.21131 29.5256 6.58709 29.5256H16.1903C17.5661 29.5256 18.6785 30.628 18.6785 31.9913C18.6785 33.3547 17.5661 34.4571 16.1903 34.4571H13.3162V34.5021C13.2027 34.4796 13.0801 34.4661 12.962 34.4571H12.3263C12.2673 34.4571 12.2083 34.4526 12.1492 34.4481H10.9642C9.58839 34.4481 8.47595 35.5504 8.47595 36.9138C8.47595 38.2771 9.58839 39.3795 10.9642 39.3795H12.7985C12.9756 39.3795 13.1527 39.3615 13.3207 39.3255V39.3795H32.9222V32.8867H21.807V32.9047Z" fill="white"/>
<path d="M3.00459 19.7662C4.40638 19.7662 5.54275 18.6401 5.54275 17.251C5.54275 15.8619 4.40638 14.7358 3.00459 14.7358C1.6028 14.7358 0.466431 15.8619 0.466431 17.251C0.466431 18.6401 1.6028 19.7662 3.00459 19.7662Z" fill="white"/>
<path d="M88.5631 55.7892V42.7215H97.7513V45.5801H92.1108V47.8261H97.1898V50.6846H92.1108V55.7892H88.5631ZM99.1072 55.7892V45.9884H102.629V55.7892H99.1072ZM100.868 44.9675C100.392 44.9675 99.9835 44.8102 99.6432 44.4954C99.3029 44.1806 99.1327 43.802 99.1327 43.3596C99.1327 42.9172 99.3029 42.5386 99.6432 42.2239C99.9835 41.9091 100.392 41.7517 100.868 41.7517C101.349 41.7517 101.757 41.9091 102.093 42.2239C102.434 42.5386 102.604 42.9172 102.604 43.3596C102.604 43.802 102.434 44.1806 102.093 44.4954C101.757 44.8102 101.349 44.9675 100.868 44.9675ZM109.146 59.6686C108.163 59.6686 107.321 59.5282 106.619 59.2475C105.921 58.971 105.379 58.5881 104.992 58.099C104.609 57.614 104.394 57.0568 104.347 56.4272H107.742C107.776 56.6357 107.861 56.8037 107.997 56.9313C108.133 57.0589 108.308 57.1504 108.52 57.2057C108.737 57.2652 108.98 57.295 109.248 57.295C109.703 57.295 110.079 57.1844 110.377 56.9632C110.679 56.742 110.83 56.3421 110.83 55.7636V54.1047H110.728C110.6 54.4365 110.405 54.7193 110.141 54.9533C109.877 55.183 109.56 55.3595 109.19 55.4829C108.82 55.602 108.414 55.6615 107.972 55.6615C107.274 55.6615 106.632 55.4999 106.045 55.1766C105.462 54.8533 104.994 54.3407 104.641 53.6389C104.292 52.937 104.118 52.0203 104.118 50.8888C104.118 49.7062 104.301 48.7449 104.666 48.0047C105.036 47.2646 105.513 46.7222 106.096 46.3777C106.683 46.0331 107.299 45.8608 107.946 45.8608C108.431 45.8608 108.856 45.9459 109.222 46.1161C109.588 46.282 109.894 46.5053 110.141 46.786C110.388 47.0625 110.575 47.3667 110.702 47.6985H110.779V45.9884H114.301V55.7636C114.301 56.5931 114.086 57.2971 113.657 57.8756C113.231 58.4584 112.632 58.9029 111.857 59.2092C111.083 59.5155 110.179 59.6686 109.146 59.6686ZM109.273 53.1603C109.596 53.1603 109.873 53.071 110.103 52.8923C110.337 52.7094 110.515 52.4499 110.639 52.1139C110.766 51.7736 110.83 51.3652 110.83 50.8888C110.83 50.4039 110.766 49.9891 110.639 49.6446C110.515 49.2958 110.337 49.0299 110.103 48.847C109.873 48.6598 109.596 48.5662 109.273 48.5662C108.95 48.5662 108.673 48.6598 108.444 48.847C108.218 49.0299 108.044 49.2958 107.92 49.6446C107.801 49.9891 107.742 50.4039 107.742 50.8888C107.742 51.3737 107.801 51.7863 107.92 52.1267C108.044 52.4627 108.218 52.7201 108.444 52.8987C108.673 53.0731 108.95 53.1603 109.273 53.1603ZM114.772 45.5801V42.7215H126.129V45.5801H122.199V55.7892H118.702V45.5801H114.772ZM130.816 55.9678C129.752 55.9678 128.842 55.7573 128.085 55.3361C127.328 54.9107 126.747 54.3195 126.343 53.5623C125.939 52.8009 125.737 51.9182 125.737 50.9143C125.737 49.9104 125.939 49.0299 126.343 48.2727C126.747 47.5113 127.328 46.92 128.085 46.4989C128.842 46.0735 129.752 45.8608 130.816 45.8608C131.879 45.8608 132.79 46.0735 133.547 46.4989C134.304 46.92 134.885 47.5113 135.289 48.2727C135.693 49.0299 135.895 49.9104 135.895 50.9143C135.895 51.9182 135.693 52.8009 135.289 53.5623C134.885 54.3195 134.304 54.9107 133.547 55.3361C132.79 55.7573 131.879 55.9678 130.816 55.9678ZM130.841 53.3645C131.139 53.3645 131.397 53.2645 131.614 53.0646C131.83 52.8647 131.998 52.5797 132.118 52.2096C132.237 51.8395 132.296 51.3993 132.296 50.8888C132.296 50.3741 132.237 49.9338 132.118 49.568C131.998 49.1979 131.83 48.9129 131.614 48.713C131.397 48.5131 131.139 48.4131 130.841 48.4131C130.527 48.4131 130.257 48.5131 130.031 48.713C129.806 48.9129 129.633 49.1979 129.514 49.568C129.395 49.9338 129.336 50.3741 129.336 50.8888C129.336 51.3993 129.395 51.8395 129.514 52.2096C129.633 52.5797 129.806 52.8647 130.031 53.0646C130.257 53.2645 130.527 53.3645 130.841 53.3645ZM142.046 55.9678C140.982 55.9678 140.072 55.7573 139.315 55.3361C138.558 54.9107 137.977 54.3195 137.573 53.5623C137.169 52.8009 136.967 51.9182 136.967 50.9143C136.967 49.9104 137.169 49.0299 137.573 48.2727C137.977 47.5113 138.558 46.92 139.315 46.4989C140.072 46.0735 140.982 45.8608 142.046 45.8608C143.109 45.8608 144.02 46.0735 144.777 46.4989C145.534 46.92 146.115 47.5113 146.519 48.2727C146.923 49.0299 147.125 49.9104 147.125 50.9143C147.125 51.9182 146.923 52.8009 146.519 53.5623C146.115 54.3195 145.534 54.9107 144.777 55.3361C144.02 55.7573 143.109 55.9678 142.046 55.9678ZM142.071 53.3645C142.369 53.3645 142.627 53.2645 142.843 53.0646C143.06 52.8647 143.228 52.5797 143.348 52.2096C143.467 51.8395 143.526 51.3993 143.526 50.8888C143.526 50.3741 143.467 49.9338 143.348 49.568C143.228 49.1979 143.06 48.9129 142.843 48.713C142.627 48.5131 142.369 48.4131 142.071 48.4131C141.757 48.4131 141.487 48.5131 141.261 48.713C141.036 48.9129 140.863 49.1979 140.744 49.568C140.625 49.9338 140.566 50.3741 140.566 50.8888C140.566 51.3993 140.625 51.8395 140.744 52.2096C140.863 52.5797 141.036 52.8647 141.261 53.0646C141.487 53.2645 141.757 53.3645 142.071 53.3645ZM152.076 42.7215V55.7892H148.554V42.7215H152.076ZM162.829 49.1788H159.588C159.571 48.9789 159.501 48.8066 159.377 48.6619C159.254 48.5173 159.095 48.4067 158.899 48.3302C158.707 48.2493 158.495 48.2089 158.261 48.2089C157.959 48.2089 157.699 48.2642 157.482 48.3748C157.265 48.4854 157.159 48.6428 157.163 48.847C157.159 48.9916 157.221 49.1256 157.348 49.249C157.48 49.3723 157.733 49.468 158.108 49.5361L160.098 49.8934C161.102 50.0763 161.849 50.3847 162.338 50.8186C162.831 51.2482 163.08 51.8246 163.085 52.5478C163.08 53.2454 162.872 53.8516 162.459 54.3663C162.051 54.8767 161.492 55.2723 160.781 55.5531C160.075 55.8296 159.269 55.9678 158.363 55.9678C156.866 55.9678 155.694 55.6615 154.847 55.049C154.005 54.4365 153.535 53.6282 153.437 52.6243H156.934C156.98 52.9349 157.134 53.1752 157.393 53.3454C157.657 53.5113 157.989 53.5942 158.388 53.5942C158.712 53.5942 158.978 53.5389 159.186 53.4283C159.399 53.3177 159.507 53.1603 159.511 52.9561C159.507 52.769 159.414 52.6201 159.231 52.5095C159.052 52.3989 158.771 52.3096 158.388 52.2415L156.653 51.9352C155.653 51.7608 154.905 51.429 154.407 50.9398C153.909 50.4507 153.662 49.8211 153.667 49.0512C153.662 48.3706 153.841 47.7942 154.203 47.322C154.568 46.8456 155.09 46.484 155.766 46.2373C156.447 45.9863 157.253 45.8608 158.184 45.8608C159.601 45.8608 160.717 46.1543 161.534 46.7414C162.355 47.3284 162.787 48.1409 162.829 49.1788Z" fill="white"/>
</g>
<defs>
<clipPath id="clip0_8_7">
<rect width="164" height="60.2605" fill="white"/>
</clipPath>
</defs>
</svg>
