<svg width="113" height="17" viewBox="0 0 113 17" fill="none" xmlns="http://www.w3.org/2000/svg">
<path d="M0.758523 12.7605V4.03319H4.2017C4.86364 4.03319 5.42756 4.15962 5.89347 4.41246C6.35938 4.66246 6.71449 5.01047 6.95881 5.45649C7.20597 5.89967 7.32955 6.41104 7.32955 6.99058C7.32955 7.57013 7.20455 8.08149 6.95455 8.52467C6.70455 8.96785 6.34233 9.31302 5.8679 9.56018C5.39631 9.80734 4.82528 9.93092 4.15483 9.93092H1.96023V8.45223H3.85653C4.21165 8.45223 4.50426 8.39115 4.73438 8.26899C4.96733 8.14399 5.14063 7.97212 5.25426 7.75337C5.37074 7.53177 5.42898 7.27751 5.42898 6.99058C5.42898 6.70081 5.37074 6.44797 5.25426 6.23206C5.14063 6.01331 4.96733 5.84427 4.73438 5.72496C4.50142 5.6028 4.20597 5.54172 3.84801 5.54172H2.60369V12.7605H0.758523ZM11.3459 12.8883C10.6839 12.8883 10.1115 12.7477 9.62855 12.4664C9.14844 12.1823 8.7777 11.7875 8.51634 11.2818C8.25497 10.7733 8.12429 10.1838 8.12429 9.51331C8.12429 8.83717 8.25497 8.24626 8.51634 7.74058C8.7777 7.23206 9.14844 6.83717 9.62855 6.55592C10.1115 6.27183 10.6839 6.12979 11.3459 6.12979C12.0078 6.12979 12.5788 6.27183 13.0589 6.55592C13.5419 6.83717 13.9141 7.23206 14.1754 7.74058C14.4368 8.24626 14.5675 8.83717 14.5675 9.51331C14.5675 10.1838 14.4368 10.7733 14.1754 11.2818C13.9141 11.7875 13.5419 12.1823 13.0589 12.4664C12.5788 12.7477 12.0078 12.8883 11.3459 12.8883ZM11.3544 11.4821C11.6555 11.4821 11.907 11.3968 12.1087 11.2264C12.3104 11.0531 12.4624 10.8173 12.5646 10.519C12.6697 10.2207 12.7223 9.88121 12.7223 9.50052C12.7223 9.11984 12.6697 8.78035 12.5646 8.48206C12.4624 8.18376 12.3104 7.94797 12.1087 7.77467C11.907 7.60138 11.6555 7.51473 11.3544 7.51473C11.0504 7.51473 10.7947 7.60138 10.5874 7.77467C10.3828 7.94797 10.228 8.18376 10.1229 8.48206C10.0206 8.78035 9.96946 9.11984 9.96946 9.50052C9.96946 9.88121 10.0206 10.2207 10.1229 10.519C10.228 10.8173 10.3828 11.0531 10.5874 11.2264C10.7947 11.3968 11.0504 11.4821 11.3544 11.4821ZM16.875 12.7605L15.0938 6.21501H16.9304L17.9446 10.6127H18.0043L19.0611 6.21501H20.8636L21.9375 10.5872H21.9929L22.9901 6.21501H24.8224L23.0455 12.7605H21.1236L19.9986 8.64399H19.9176L18.7926 12.7605H16.875ZM28.6097 12.8883C27.9364 12.8883 27.3569 12.7519 26.8711 12.4792C26.3881 12.2036 26.016 11.8144 25.7546 11.3116C25.4933 10.8059 25.3626 10.2079 25.3626 9.51757C25.3626 8.84427 25.4933 8.25337 25.7546 7.74484C26.016 7.23632 26.3839 6.84001 26.8583 6.55592C27.3356 6.27183 27.8952 6.12979 28.5373 6.12979C28.9691 6.12979 29.3711 6.19939 29.7433 6.33859C30.1183 6.47496 30.445 6.68092 30.7234 6.95649C31.0046 7.23206 31.2234 7.57865 31.3796 7.99626C31.5359 8.41104 31.614 8.89683 31.614 9.45365V9.95223H26.087V8.82723H29.9052C29.9052 8.56587 29.8484 8.33433 29.7347 8.13263C29.6211 7.93092 29.4634 7.77325 29.2617 7.65962C29.0629 7.54314 28.8313 7.4849 28.5671 7.4849C28.2915 7.4849 28.0472 7.54882 27.8342 7.67666C27.6239 7.80166 27.4592 7.97069 27.3398 8.18376C27.2205 8.39399 27.1594 8.62837 27.1566 8.88689V9.95649C27.1566 10.2804 27.2163 10.5602 27.3356 10.796C27.4577 11.0318 27.6296 11.2136 27.8512 11.3414C28.0728 11.4693 28.3356 11.5332 28.6396 11.5332C28.8413 11.5332 29.0259 11.5048 29.1935 11.448C29.3612 11.3911 29.5046 11.3059 29.6239 11.1923C29.7433 11.0786 29.8342 10.9394 29.8967 10.7747L31.5756 10.8855C31.4904 11.2889 31.3157 11.6411 31.0515 11.9423C30.7901 12.2406 30.4521 12.4735 30.0373 12.6411C29.6254 12.8059 29.1495 12.8883 28.6097 12.8883ZM32.7987 12.7605V6.21501H34.5586V7.35706H34.6268C34.7461 6.95081 34.9464 6.64399 35.2276 6.4366C35.5089 6.22638 35.8327 6.12126 36.1992 6.12126C36.2901 6.12126 36.3881 6.12694 36.4933 6.13831C36.5984 6.14967 36.6907 6.1653 36.7702 6.18518V7.79598C36.685 7.77041 36.5671 7.74768 36.4165 7.7278C36.266 7.70791 36.1282 7.69797 36.0032 7.69797C35.7362 7.69797 35.4975 7.75621 35.2873 7.87268C35.0799 7.98632 34.9151 8.14541 34.793 8.34996C34.6737 8.5545 34.614 8.7903 34.614 9.05734V12.7605H32.7987ZM40.3871 12.8883C39.7138 12.8883 39.1342 12.7519 38.6484 12.4792C38.1655 12.2036 37.7933 11.8144 37.532 11.3116C37.2706 10.8059 37.1399 10.2079 37.1399 9.51757C37.1399 8.84427 37.2706 8.25337 37.532 7.74484C37.7933 7.23632 38.1612 6.84001 38.6357 6.55592C39.1129 6.27183 39.6726 6.12979 40.3146 6.12979C40.7464 6.12979 41.1484 6.19939 41.5206 6.33859C41.8956 6.47496 42.2223 6.68092 42.5007 6.95649C42.782 7.23206 43.0007 7.57865 43.157 7.99626C43.3132 8.41104 43.3913 8.89683 43.3913 9.45365V9.95223H37.8643V8.82723H41.6825C41.6825 8.56587 41.6257 8.33433 41.5121 8.13263C41.3984 7.93092 41.2408 7.77325 41.0391 7.65962C40.8402 7.54314 40.6087 7.4849 40.3445 7.4849C40.0689 7.4849 39.8246 7.54882 39.6115 7.67666C39.4013 7.80166 39.2365 7.97069 39.1172 8.18376C38.9979 8.39399 38.9368 8.62837 38.9339 8.88689V9.95649C38.9339 10.2804 38.9936 10.5602 39.1129 10.796C39.2351 11.0318 39.407 11.2136 39.6286 11.3414C39.8501 11.4693 40.1129 11.5332 40.4169 11.5332C40.6186 11.5332 40.8033 11.5048 40.9709 11.448C41.1385 11.3911 41.282 11.3059 41.4013 11.1923C41.5206 11.0786 41.6115 10.9394 41.674 10.7747L43.353 10.8855C43.2678 11.2889 43.093 11.6411 42.8288 11.9423C42.5675 12.2406 42.2294 12.4735 41.8146 12.6411C41.4027 12.8059 40.9268 12.8883 40.3871 12.8883ZM46.9879 12.867C46.4908 12.867 46.0405 12.7392 45.6371 12.4835C45.2365 12.225 44.9183 11.8457 44.6825 11.3457C44.4496 10.8429 44.3331 10.2264 44.3331 9.49626C44.3331 8.74626 44.4538 8.12268 44.6953 7.62552C44.9368 7.12552 45.2578 6.75194 45.6584 6.50479C46.0618 6.25479 46.5036 6.12979 46.9837 6.12979C47.3501 6.12979 47.6555 6.19229 47.8999 6.31729C48.147 6.43944 48.3459 6.59285 48.4964 6.77751C48.6499 6.95933 48.7663 7.13831 48.8459 7.31444H48.9013V4.03319H50.7124V12.7605H48.9226V11.7122H48.8459C48.7607 11.894 48.6399 12.0744 48.4837 12.2534C48.3303 12.4295 48.13 12.5758 47.8828 12.6923C47.6385 12.8088 47.3402 12.867 46.9879 12.867ZM47.5632 11.4224C47.8558 11.4224 48.103 11.3429 48.3047 11.1838C48.5092 11.0218 48.6655 10.796 48.7734 10.5062C48.8842 10.2164 48.9396 9.87694 48.9396 9.48774C48.9396 9.09854 48.8857 8.76047 48.7777 8.47354C48.6697 8.1866 48.5135 7.96501 48.3089 7.80876C48.1044 7.65251 47.8558 7.57439 47.5632 7.57439C47.2649 7.57439 47.0135 7.65535 46.8089 7.81729C46.6044 7.97922 46.4496 8.20365 46.3445 8.49058C46.2393 8.77751 46.1868 9.1099 46.1868 9.48774C46.1868 9.86842 46.2393 10.2051 46.3445 10.4977C46.4524 10.7875 46.6072 11.0147 46.8089 11.1795C47.0135 11.3414 47.2649 11.4224 47.5632 11.4224ZM55.0163 12.7605V4.03319H56.8317V7.31444H56.8871C56.9666 7.13831 57.0817 6.95933 57.2322 6.77751C57.3857 6.59285 57.5845 6.43944 57.8288 6.31729C58.076 6.19229 58.3828 6.12979 58.7493 6.12979C59.2266 6.12979 59.6669 6.25479 60.0703 6.50479C60.4737 6.75194 60.7962 7.12552 61.0376 7.62552C61.2791 8.12268 61.3999 8.74626 61.3999 9.49626C61.3999 10.2264 61.282 10.8429 61.0462 11.3457C60.8132 11.8457 60.495 12.225 60.0916 12.4835C59.6911 12.7392 59.2422 12.867 58.745 12.867C58.3928 12.867 58.093 12.8088 57.8459 12.6923C57.6016 12.5758 57.4013 12.4295 57.245 12.2534C57.0888 12.0744 56.9695 11.894 56.8871 11.7122H56.8061V12.7605H55.0163ZM56.7933 9.48774C56.7933 9.87694 56.8473 10.2164 56.9553 10.5062C57.0632 10.796 57.2195 11.0218 57.424 11.1838C57.6286 11.3429 57.8771 11.4224 58.1697 11.4224C58.4652 11.4224 58.7152 11.3414 58.9197 11.1795C59.1243 11.0147 59.2791 10.7875 59.3842 10.4977C59.4922 10.2051 59.5462 9.86842 59.5462 9.48774C59.5462 9.1099 59.4936 8.77751 59.3885 8.49058C59.2834 8.20365 59.1286 7.97922 58.924 7.81729C58.7195 7.65535 58.468 7.57439 58.1697 7.57439C57.8743 7.57439 57.6243 7.65251 57.4197 7.80876C57.218 7.96501 57.0632 8.1866 56.9553 8.47354C56.8473 8.76047 56.7933 9.09854 56.7933 9.48774ZM63.521 15.215C63.2908 15.215 63.0749 15.1965 62.8732 15.1596C62.6744 15.1255 62.5096 15.0815 62.3789 15.0275L62.788 13.6724C63.0011 13.7377 63.1928 13.7733 63.3633 13.7789C63.5366 13.7846 63.6857 13.7448 63.8107 13.6596C63.9386 13.5744 64.0423 13.4295 64.1218 13.225L64.2283 12.948L61.8803 6.21501H63.7894L65.1445 11.0218H65.2127L66.5806 6.21501H68.5025L65.9585 13.4679C65.8363 13.8201 65.6701 14.1269 65.4599 14.3883C65.2525 14.6525 64.9897 14.8556 64.6715 14.9977C64.3533 15.1426 63.9698 15.215 63.521 15.215Z" fill="white"/>
<g clip-path="url(#clip0_7_16)">
<path fill-rule="evenodd" clip-rule="evenodd" d="M90.0555 13.9757V4.83644C90.0555 3.57469 89.0325 2.55171 87.7708 2.55171C86.5088 2.55171 85.4858 3.57469 85.4859 4.83644L85.4858 13.9758C85.4858 15.2376 86.5088 16.2606 87.7707 16.2605C89.0326 16.2605 90.0555 15.2376 90.0555 13.9757Z" fill="white"/>
<path fill-rule="evenodd" clip-rule="evenodd" d="M109.747 2.5518L103.284 2.55171C102.022 2.55171 100.999 3.57469 100.999 4.83644C100.999 6.09837 102.022 7.12135 103.284 7.12135H104.231V13.9756C104.231 15.2376 105.254 16.2605 106.516 16.2605C107.777 16.2605 108.801 15.2376 108.801 13.9756V7.12126H109.747C111.009 7.12135 112.032 6.09837 112.032 4.83653C112.032 3.57478 111.009 2.5518 109.747 2.5518Z" fill="white"/>
<path fill-rule="evenodd" clip-rule="evenodd" d="M82.2985 16.2605C83.5604 16.2605 84.5833 15.2375 84.5833 13.9755C84.5833 12.7138 83.5603 11.6908 82.2985 11.6908H79.8544C78.5925 11.6908 77.5696 10.6679 77.5696 9.40608C77.5696 8.14415 78.5925 7.12117 79.8545 7.12117H82.2985C83.5603 7.12117 84.5833 6.09819 84.5833 4.83625C84.5833 3.57451 83.5603 2.55152 82.2985 2.55152H79.8544C76.0688 2.55171 73 5.62057 73 9.40618C73 13.1917 76.0688 16.2605 79.8544 16.2605H82.2985Z" fill="white"/>
<path fill-rule="evenodd" clip-rule="evenodd" d="M91.7931 9.05836C91.2673 9.80265 90.9574 10.7103 90.9574 11.6909C90.9574 14.2146 93.0035 16.2605 95.5269 16.2605C96.5076 16.2605 97.4152 15.9506 98.1596 15.4248L91.7931 9.05836Z" fill="white"/>
<path fill-rule="evenodd" clip-rule="evenodd" d="M102.659 12.3602L94.1738 3.89645C93.4378 3.16051 93.4472 1.95806 94.1945 1.21075C94.2882 1.11702 94.3898 1.03624 94.496 0.965741C94.0081 1.70599 94.0823 2.70345 94.7246 3.34566L99.2569 7.86666C99.7851 7.12127 100.097 6.21147 100.097 5.22833C100.097 2.70474 98.0508 0.658864 95.5269 0.658864C93.0034 0.658864 90.9575 2.70474 90.9575 5.22833C90.9575 6.49035 91.469 7.63267 92.2959 8.45967L98.7583 14.9221L99.4274 15.5912C100.32 16.4836 101.766 16.4836 102.659 15.5912C103.551 14.699 103.551 13.2523 102.659 12.3602Z" fill="white"/>
</g>
<defs>
<clipPath id="clip0_7_16">
<rect width="39.0317" height="16" fill="white" transform="translate(73 0.260468)"/>
</clipPath>
</defs>
</svg>
